Coordinates
version=1
nRows=7
nColumns=40
inDegrees=yes

Units are S.I. units (second, meters, Newtons, ...)
Angles are in degrees.

endheader
time	pelvis_tilt	pelvis_list	pelvis_rotation	pelvis_tx	pelvis_ty	pelvis_tz	hip_flexion_r	hip_adduction_r	hip_rotation_r	knee_angle_r	knee_angle_r_beta	ankle_angle_r	subtalar_angle_r	mtp_angle_r	hip_flexion_l	hip_adduction_l	hip_rotation_l	knee_angle_l	knee_angle_l_beta	ankle_angle_l	subtalar_angle_l	mtp_angle_l	lumbar_extension	lumbar_bending	lumbar_rotation	arm_flex_r	arm_add_r	arm_rot_r	elbow_flex_r	pro_sup_r	wrist_flex_r	wrist_dev_r	arm_flex_l	arm_add_l	arm_rot_l	elbow_flex_l	pro_sup_l	wrist_flex_l	wrist_dev_l
     22.42250000	     -3.36352450	     -2.44859106	      1.13663407	      0.86908864	      0.92994083	      0.37206025	     17.26742356	     -0.36606738	    -12.21758301	     19.81866350	     19.81866350	      8.06715911	     -3.40489309	     -2.48467188	      6.09963995	     -8.04304674	    -10.46008855	     26.92403864	     26.92403864	     16.13391450	     -8.77688594	     -2.02135385	     -8.97253155	      2.37986578	      0.82307137	      2.31119236	    -20.41833348	     -7.26657365	     52.04753717	     45.39447289	      0.00000000	      0.00000000	     14.93410488	    -23.34061201	     -9.09248208	     40.14281479	     46.51928266	      0.00000000	      0.00000000
     22.43600000	     -3.22987341	     -2.58151724	      1.42267373	      0.86828927	      0.93052167	      0.37505265	     16.55625560	     -0.03335388	    -12.62409887	     19.39996780	     19.39996780	      8.27767292	     -3.12752694	     -2.56106456	      7.15791406	     -8.68586593	     -9.68264744	     29.51402629	     29.51402629	     15.42855562	     -9.69529597	     -2.40259300	     -9.03507841	      2.66814203	      1.06893619	      3.42004808	    -20.81932051	     -7.42424168	     52.75658494	     45.38386486	      0.00000000	      0.00000000	     15.04816869	    -23.80651882	     -9.19038801	     39.88930618	     46.53202495	      0.00000000	      0.00000000
     22.44950000	     -3.14556529	     -2.67082262	      1.71415429	      0.86728901	      0.93097107	      0.37805075	     15.91243118	      0.25576053	    -13.06685996	     18.97679551	     18.97679551	      8.48242309	     -2.79836110	     -2.66141051	      8.41420000	     -9.26117296	     -8.81158349	     32.28209597	     32.28209597	     14.51653308	    -10.71633742	     -2.78554405	     -9.10117797	      2.85396132	      1.24940610	      4.53234514	    -21.20210481	     -7.54362667	     53.61447841	     45.36599435	      0.00000000	      0.00000000	     15.13316686	    -24.30105264	     -9.31137328	     39.58777149	     46.54686953	      0.00000000	      0.00000000
     22.46300000	     -3.19393901	     -2.71206322	      2.08959104	      0.86604508	      0.93114162	      0.38064988	     15.43537478	      0.39912619	    -13.72789733	     18.58614739	     18.58614739	      8.60549946	     -2.14553643	     -3.14249150	      9.96491584	     -9.60489112	     -7.50878194	     35.14972522	     35.14972522	     13.09223073	    -12.41960576	     -3.59603717	     -8.96381514	      3.11681634	      1.07415024	      5.36278265	    -21.63682186	     -7.31743496	     55.81341815	     45.29000360	      0.00000000	      0.00000000	     15.04954992	    -24.82445270	     -9.71585982	     38.73456899	     46.59339570	      0.00000000	      0.00000000
     22.47650000	     -3.08348800	     -2.85316346	      2.40878337	      0.86469852	      0.93144656	      0.38342362	     14.82875405	      0.73058765	    -14.13969333	     18.23132314	     18.23132314	      8.78000012	     -1.87368074	     -3.23862383	     11.44260971	    -10.17456391	     -6.55768784	     38.19180408	     38.19180408	     11.94373519	    -13.32391461	     -3.86603324	     -9.07698240	      3.38565405	      1.47041171	      6.37062935	    -22.18336300	     -7.39397352	     56.55077071	     45.27497188	      0.00000000	      0.00000000	     15.28742521	    -25.16691320	     -9.87185025	     38.66772327	     46.61612369	      0.00000000	      0.00000000
     22.49000000	     -3.02768452	     -2.94027212	      2.72652918	      0.86313863	      0.93161145	      0.38602622	     14.31434809	      0.98488968	    -14.55528618	     17.91547631	     17.91547631	      8.95722983	     -1.56285459	     -3.36108851	     13.04136558	    -10.59153286	     -5.51725806	     41.22380090	     41.22380090	     10.72630350	    -14.28914473	     -3.92452316	     -9.13488248	      3.61988066	      1.73163454	      7.40270526	    -22.68358478	     -7.45913853	     57.46053507	     45.25340829	      0.00000000	      0.00000000	     15.41306891	    -25.55129238	    -10.04659019	     38.54052419	     46.63921049	      0.00000000	      0.00000000
     22.50350000	     -3.05001562	     -2.94446128	      3.09434643	      0.86136702	      0.93161900	      0.38823850	     13.94157555	      1.05263096	    -15.22542820	     17.71133362	     17.71133362	      9.11126486	     -0.93284367	     -3.88119091	     14.78285842	    -10.72136799	     -4.25572207	     44.19990091	     44.19990091	      9.67953623	    -15.46287097	     -2.98680977	     -9.16238585	      3.81438600	      1.72746083	      8.05213999	    -23.31895895	     -6.98811314	     59.89089999	     45.16460601	      0.00000000	      0.00000000	     15.29125890	    -25.88290861	    -10.72104548	     38.23230614	     46.71991923	      0.00000000	      0.00000000
